<svg xmlns="http://www.w3.org/2000/svg" viewBox="0 0 600 600"><defs>
      <radialGradient id="ebg" cx="50%" cy="42%" r="62%"><stop offset="0" stop-color="#ffffff"/><stop offset="1" stop-color="#fbe0ea"/></radialGradient>
      <linearGradient id="pet" x1="0" y1="0" x2="0" y2="1"><stop offset="0" stop-color="#F585AC"/><stop offset="1" stop-color="#C9407A"/></linearGradient>
    </defs><circle cx="300" cy="300" r="290" fill="url(#ebg)"/><circle cx="300" cy="300" r="256" fill="none" stroke="#C9407A" stroke-width="5" opacity=".35"/><g transform="translate(300,320) rotate(200)"><path d="M0,0 C60,-20 150,-10 190,40 C120,55 40,40 0,0 Z" fill="#8CC06B"/><path d="M0,0 C70,0 140,10 185,38" stroke="#6ba24d" stroke-width="3" fill="none"/></g><g transform="translate(300,320) rotate(340)"><path d="M0,0 C60,-20 150,-10 190,40 C120,55 40,40 0,0 Z" fill="#8CC06B"/><path d="M0,0 C70,0 140,10 185,38" stroke="#6ba24d" stroke-width="3" fill="none"/></g><g transform="translate(300,286) rotate(0)"><path d="M0,0 C26,-30 26,-96 0,-128 C-26,-96 -26,-30 0,0 Z" fill="url(#pet)"/></g><g transform="translate(300,286) rotate(45)"><path d="M0,0 C26,-30 26,-96 0,-128 C-26,-96 -26,-30 0,0 Z" fill="url(#pet)"/></g><g transform="translate(300,286) rotate(90)"><path d="M0,0 C26,-30 26,-96 0,-128 C-26,-96 -26,-30 0,0 Z" fill="url(#pet)"/></g><g transform="translate(300,286) rotate(135)"><path d="M0,0 C26,-30 26,-96 0,-128 C-26,-96 -26,-30 0,0 Z" fill="url(#pet)"/></g><g transform="translate(300,286) rotate(180)"><path d="M0,0 C26,-30 26,-96 0,-128 C-26,-96 -26,-30 0,0 Z" fill="url(#pet)"/></g><g transform="translate(300,286) rotate(225)"><path d="M0,0 C26,-30 26,-96 0,-128 C-26,-96 -26,-30 0,0 Z" fill="url(#pet)"/></g><g transform="translate(300,286) rotate(270)"><path d="M0,0 C26,-30 26,-96 0,-128 C-26,-96 -26,-30 0,0 Z" fill="url(#pet)"/></g><g transform="translate(300,286) rotate(315)"><path d="M0,0 C26,-30 26,-96 0,-128 C-26,-96 -26,-30 0,0 Z" fill="url(#pet)"/></g><g transform="translate(300,286) rotate(22)"><path d="M0,0 C16,-20 16,-58 0,-78 C-16,-58 -16,-20 0,0 Z" fill="#F9A8C6"/></g><g transform="translate(300,286) rotate(67)"><path d="M0,0 C16,-20 16,-58 0,-78 C-16,-58 -16,-20 0,0 Z" fill="#F9A8C6"/></g><g transform="translate(300,286) rotate(112)"><path d="M0,0 C16,-20 16,-58 0,-78 C-16,-58 -16,-20 0,0 Z" fill="#F9A8C6"/></g><g transform="translate(300,286) rotate(157)"><path d="M0,0 C16,-20 16,-58 0,-78 C-16,-58 -16,-20 0,0 Z" fill="#F9A8C6"/></g><g transform="translate(300,286) rotate(202)"><path d="M0,0 C16,-20 16,-58 0,-78 C-16,-58 -16,-20 0,0 Z" fill="#F9A8C6"/></g><g transform="translate(300,286) rotate(247)"><path d="M0,0 C16,-20 16,-58 0,-78 C-16,-58 -16,-20 0,0 Z" fill="#F9A8C6"/></g><g transform="translate(300,286) rotate(292)"><path d="M0,0 C16,-20 16,-58 0,-78 C-16,-58 -16,-20 0,0 Z" fill="#F9A8C6"/></g><g transform="translate(300,286) rotate(337)"><path d="M0,0 C16,-20 16,-58 0,-78 C-16,-58 -16,-20 0,0 Z" fill="#F9A8C6"/></g><circle cx="300" cy="286" r="30" fill="#F4B942"/><circle cx="300" cy="286" r="30" fill="#e0a01f" opacity=".25"/><g transform="translate(180,180)" fill="#C9407A"><path d="M0,-20 C3,-4 4,-3 20,0 C4,3 3,4 0,20 C-3,4 -4,3 -20,0 C-4,-3 -3,-4 0,-20 Z"/></g><g transform="translate(430,210)" fill="#C9407A"><path d="M0,-26 C3,-4 4,-3 26,0 C4,3 3,4 0,26 C-3,4 -4,3 -26,0 C-4,-3 -3,-4 0,-26 Z"/></g><g transform="translate(150,330)" fill="#C9407A"><path d="M0,-16 C3,-4 4,-3 16,0 C4,3 3,4 0,16 C-3,4 -4,3 -16,0 C-4,-3 -3,-4 0,-16 Z"/></g><g transform="translate(450,360)" fill="#C9407A"><path d="M0,-18 C3,-4 4,-3 18,0 C4,3 3,4 0,18 C-3,4 -4,3 -18,0 C-4,-3 -3,-4 0,-18 Z"/></g></svg>