<svg xmlns="http://www.w3.org/2000/svg" viewBox="0 0 600 600"><defs>
      <radialGradient id="bbg" cx="50%" cy="40%" r="62%"><stop offset="0" stop-color="#20201f"/><stop offset="1" stop-color="#0c0c0e"/></radialGradient>
      <clipPath id="pole"><rect x="262" y="150" width="76" height="300" rx="38"/></clipPath>
    </defs><circle cx="300" cy="300" r="290" fill="url(#bbg)"/><circle cx="300" cy="300" r="256" fill="none" stroke="#C9A24B" stroke-width="6" opacity=".55"/><rect x="262" y="150" width="76" height="300" rx="38" fill="#f3f0ea"/><g clip-path="url(#pole)"><path d="M262,-90 L338,-136 L338,-112 L262,-66 Z" fill="#c0392b"/><path d="M262,-50 L338,-96 L338,-72 L262,-26 Z" fill="#2f5d9e"/><path d="M262,-10 L338,-56 L338,-32 L262,14 Z" fill="#c0392b"/><path d="M262,30 L338,-16 L338,8 L262,54 Z" fill="#2f5d9e"/><path d="M262,70 L338,24 L338,48 L262,94 Z" fill="#c0392b"/><path d="M262,110 L338,64 L338,88 L262,134 Z" fill="#2f5d9e"/><path d="M262,150 L338,104 L338,128 L262,174 Z" fill="#c0392b"/><path d="M262,190 L338,144 L338,168 L262,214 Z" fill="#2f5d9e"/><path d="M262,230 L338,184 L338,208 L262,254 Z" fill="#c0392b"/><path d="M262,270 L338,224 L338,248 L262,294 Z" fill="#2f5d9e"/><path d="M262,310 L338,264 L338,288 L262,334 Z" fill="#c0392b"/><path d="M262,350 L338,304 L338,328 L262,374 Z" fill="#2f5d9e"/><path d="M262,390 L338,344 L338,368 L262,414 Z" fill="#c0392b"/><path d="M262,430 L338,384 L338,408 L262,454 Z" fill="#2f5d9e"/><path d="M262,470 L338,424 L338,448 L262,494 Z" fill="#c0392b"/><path d="M262,510 L338,464 L338,488 L262,534 Z" fill="#2f5d9e"/><path d="M262,550 L338,504 L338,528 L262,574 Z" fill="#c0392b"/><path d="M262,590 L338,544 L338,568 L262,614 Z" fill="#2f5d9e"/></g><rect x="250" y="132" width="100" height="28" rx="10" fill="#C9A24B"/><rect x="250" y="440" width="100" height="28" rx="10" fill="#C9A24B"/><rect x="288" y="112" width="24" height="26" rx="6" fill="#C9A24B"/><rect x="288" y="466" width="24" height="24" rx="6" fill="#C9A24B"/><g transform="translate(150,300) rotate(-18)" stroke="#C9A24B" stroke-width="9" fill="none" stroke-linecap="round"><circle cx="-8" cy="-34" r="16"/><circle cx="-8" cy="34" r="16"/><line x1="4" y1="-24" x2="70" y2="6"/><line x1="4" y1="24" x2="70" y2="-6"/></g><g transform="translate(430,300) rotate(20)"><rect x="-6" y="-70" width="16" height="120" rx="8" fill="#C9A24B"/><path d="M10,-70 q46,10 40,120 q-30,-4 -40,-40 Z" fill="#e8dcc0"/></g></svg>