<svg xmlns="http://www.w3.org/2000/svg" viewBox="0 0 600 600"><defs>
      <radialGradient id="pbg" cx="50%" cy="42%" r="60%"><stop offset="0" stop-color="#3a1a0d"/><stop offset="1" stop-color="#20120a"/></radialGradient>
    </defs><circle cx="300" cy="300" r="290" fill="url(#pbg)"/><circle cx="300" cy="300" r="248" fill="none" stroke="#F4B942" stroke-width="6" opacity=".5"/><circle cx="300" cy="300" r="210" fill="#E8B36A"/><circle cx="300" cy="300" r="186" fill="#C6432C"/><circle cx="300" cy="300" r="186" fill="#E8A83C" opacity=".22"/><circle cx="275" cy="351" r="9" fill="#F2CE63" opacity=".55"/><circle cx="389" cy="343" r="14" fill="#F2CE63" opacity=".55"/><circle cx="178" cy="231" r="12" fill="#F2CE63" opacity=".55"/><circle cx="385" cy="320" r="10" fill="#F2CE63" opacity=".55"/><circle cx="306" cy="400" r="9" fill="#F2CE63" opacity=".55"/><circle cx="325" cy="252" r="12" fill="#F2CE63" opacity=".55"/><circle cx="229" cy="224" r="9" fill="#F2CE63" opacity=".55"/><circle cx="226" cy="261" r="12" fill="#F2CE63" opacity=".55"/><circle cx="429" cy="339" r="13" fill="#F2CE63" opacity=".55"/><circle cx="230" cy="230" r="24" fill="#A82B22"/><circle cx="230" cy="230" r="24" fill="none" stroke="#7d1f18" stroke-width="3"/><circle cx="224" cy="224" r="5" fill="#c0463c" opacity=".7"/><circle cx="370" cy="240" r="24" fill="#A82B22"/><circle cx="370" cy="240" r="24" fill="none" stroke="#7d1f18" stroke-width="3"/><circle cx="364" cy="234" r="5" fill="#c0463c" opacity=".7"/><circle cx="300" cy="320" r="24" fill="#A82B22"/><circle cx="300" cy="320" r="24" fill="none" stroke="#7d1f18" stroke-width="3"/><circle cx="294" cy="314" r="5" fill="#c0463c" opacity=".7"/><circle cx="240" cy="370" r="24" fill="#A82B22"/><circle cx="240" cy="370" r="24" fill="none" stroke="#7d1f18" stroke-width="3"/><circle cx="234" cy="364" r="5" fill="#c0463c" opacity=".7"/><circle cx="378" cy="360" r="24" fill="#A82B22"/><circle cx="378" cy="360" r="24" fill="none" stroke="#7d1f18" stroke-width="3"/><circle cx="372" cy="354" r="5" fill="#c0463c" opacity=".7"/><circle cx="300" cy="205" r="24" fill="#A82B22"/><circle cx="300" cy="205" r="24" fill="none" stroke="#7d1f18" stroke-width="3"/><circle cx="294" cy="199" r="5" fill="#c0463c" opacity=".7"/><circle cx="210" cy="300" r="24" fill="#A82B22"/><circle cx="210" cy="300" r="24" fill="none" stroke="#7d1f18" stroke-width="3"/><circle cx="204" cy="294" r="5" fill="#c0463c" opacity=".7"/><circle cx="390" cy="300" r="24" fill="#A82B22"/><circle cx="390" cy="300" r="24" fill="none" stroke="#7d1f18" stroke-width="3"/><circle cx="384" cy="294" r="5" fill="#c0463c" opacity=".7"/><g transform="translate(275,255) rotate(20)"><path d="M0,-16 C12,-10 12,10 0,16 C-12,10 -12,-10 0,-16 Z" fill="#3f9142"/><line x1="0" y1="-14" x2="0" y2="14" stroke="#2f6e31" stroke-width="2"/></g><g transform="translate(340,300) rotate(-30)"><path d="M0,-16 C12,-10 12,10 0,16 C-12,10 -12,-10 0,-16 Z" fill="#3f9142"/><line x1="0" y1="-14" x2="0" y2="14" stroke="#2f6e31" stroke-width="2"/></g><g transform="translate(265,340) rotate(50)"><path d="M0,-16 C12,-10 12,10 0,16 C-12,10 -12,-10 0,-16 Z" fill="#3f9142"/><line x1="0" y1="-14" x2="0" y2="14" stroke="#2f6e31" stroke-width="2"/></g></svg>